<svg xmlns="http://www.w3.org/2000/svg" width="960" height="540" viewBox="0 0 960 540">
  <rect width="100%" height="100%" fill="#f8fafc"/>
  <text x="76" y="28" font-size="22" font-weight="700" fill="#172033">Motor Step Response</text>
  <text x="76" y="522" font-size="14" fill="#44505f">time (s)</text>
  <text x="20" y="64" font-size="14" fill="#44505f" transform="rotate(-90 20 64)">RPM</text>
  <line x1="76" y1="476.00" x2="928" y2="476.00" stroke="#d7dde5" stroke-width="1"/><text x="64" y="481.00" text-anchor="end" font-size="13" fill="#44505f">0</text><line x1="76" y1="389.60" x2="928" y2="389.60" stroke="#d7dde5" stroke-width="1"/><text x="64" y="394.60" text-anchor="end" font-size="13" fill="#44505f">271</text><line x1="76" y1="303.20" x2="928" y2="303.20" stroke="#d7dde5" stroke-width="1"/><text x="64" y="308.20" text-anchor="end" font-size="13" fill="#44505f">541</text><line x1="76" y1="216.80" x2="928" y2="216.80" stroke="#d7dde5" stroke-width="1"/><text x="64" y="221.80" text-anchor="end" font-size="13" fill="#44505f">812</text><line x1="76" y1="130.40" x2="928" y2="130.40" stroke="#d7dde5" stroke-width="1"/><text x="64" y="135.40" text-anchor="end" font-size="13" fill="#44505f">1082</text><line x1="76" y1="44.00" x2="928" y2="44.00" stroke="#d7dde5" stroke-width="1"/><text x="64" y="49.00" text-anchor="end" font-size="13" fill="#44505f">1353</text>
  <line x1="76" y1="44" x2="76" y2="476" stroke="#172033" stroke-width="1.5"/>
  <line x1="76" y1="476" x2="928" y2="476" stroke="#172033" stroke-width="1.5"/>
  <line x1="76" y1="92.78" x2="928" y2="92.78" stroke="#ef4444" stroke-width="2" stroke-dasharray="7 7"/>
  <polyline points="76.00,476.82 78.13,468.51 80.26,455.44 82.39,438.55 84.52,420.22 86.65,400.57 88.78,380.27 90.91,361.80 93.04,343.81 95.17,327.71 97.30,312.36 99.43,298.13 101.56,286.23 103.69,272.46 105.82,260.33 107.95,249.16 110.08,240.58 112.21,231.96 114.34,222.84 116.47,214.05 118.60,205.39 120.73,197.94 122.86,190.62 124.99,184.97 127.12,178.69 129.25,172.94 131.38,168.54 133.51,162.27 135.64,157.96 137.77,153.41 139.90,150.81 142.03,148.00 144.16,144.75 146.29,141.48 148.42,137.87 150.55,135.08 152.68,133.05 154.81,131.36 156.94,129.15 159.07,125.66 161.20,124.57 163.33,122.38 165.46,120.33 167.59,120.08 169.72,118.08 171.85,115.40 173.98,116.05 176.11,114.53 178.24,113.04 180.37,112.33 182.50,110.46 184.63,109.49 186.76,109.72 188.89,107.65 191.02,106.33 193.15,105.09 195.28,103.77 197.41,103.68 199.54,103.61 201.67,104.48 203.80,103.20 205.93,103.27 208.06,102.98 210.19,103.27 212.32,102.99 214.45,102.30 216.58,100.28 218.71,101.69 220.84,101.84 222.97,100.40 225.10,98.52 227.23,98.08 229.36,99.73 231.49,101.01 233.62,99.28 235.75,99.08 237.88,99.18 240.01,97.45 242.14,96.33 244.27,96.43 246.40,96.36 248.53,96.13 250.66,95.04 252.79,95.20 254.92,95.34 257.05,95.38 259.18,97.06 261.31,95.64 263.44,95.09 265.57,95.10 267.70,97.09 269.83,97.04 271.96,95.77 274.09,97.15 276.22,96.54 278.35,95.19 280.48,96.28 282.61,94.50 284.74,94.35 286.87,94.82 289.00,94.68 291.13,94.33 293.26,94.54 295.39,93.83 297.52,94.88 299.65,95.24 301.78,94.24 303.91,94.49 306.04,95.33 308.17,94.30 310.30,93.31 312.43,94.30 314.56,95.57 316.69,95.24 318.82,95.03 320.95,95.00 323.08,93.60 325.21,94.77 327.34,93.56 329.47,94.91 331.60,95.24 333.73,94.25 335.86,93.30 337.99,92.99 340.12,93.24 342.25,93.55 344.38,93.71 346.51,93.45 348.64,93.91 350.77,93.79 352.90,93.48 355.03,93.76 357.16,93.30 359.29,93.21 361.42,92.00 363.55,92.72 365.68,93.72 367.81,94.22 369.94,94.19 372.07,93.40 374.20,93.97 376.33,93.70 378.46,92.37 380.59,95.18 382.72,95.53 384.85,94.58 386.98,93.90 389.11,93.64 391.24,94.02 393.37,93.35 395.50,93.27 397.63,93.87 399.76,91.83 401.89,92.39 404.02,93.44 406.15,93.65 408.28,93.86 410.41,93.82 412.54,95.92 414.67,95.22 416.80,93.59 418.93,94.43 421.06,93.98 423.19,92.90 425.32,92.39 427.45,91.61 429.58,93.77 431.71,93.87 433.84,93.89 435.97,93.12 438.10,92.32 440.23,94.91 442.36,93.28 444.49,94.41 446.62,93.30 448.75,94.42 450.88,93.67 453.01,92.43 455.14,92.84 457.27,92.80 459.40,92.29 461.53,92.56 463.66,92.90 465.79,91.79 467.92,91.60 470.05,92.59 472.18,90.72 474.31,92.85 476.44,92.38 478.57,93.08 480.70,93.14 482.83,92.71 484.96,92.86 487.09,92.62 489.22,94.22 491.35,95.05 493.48,93.77 495.61,94.30 497.74,94.62 499.87,95.11 502.00,93.14 504.13,92.47 506.26,91.54 508.39,92.98 510.52,93.02 512.65,93.95 514.78,92.92 516.91,91.70 519.04,93.03 521.17,91.80 523.30,91.61 525.43,92.47 527.56,94.38 529.69,92.70 531.82,92.98 533.95,93.54 536.08,93.03 538.21,92.73 540.34,91.71 542.47,93.18 544.60,92.26 546.73,91.49 548.86,91.13 550.99,92.27 553.12,93.36 555.25,92.54 557.38,92.81 559.51,92.96 561.64,92.00 563.77,92.84 565.90,94.92 568.03,94.49 570.16,95.39 572.29,93.70 574.42,93.15 576.55,93.58 578.68,93.32 580.81,92.49 582.94,92.65 585.07,91.75 587.20,92.38 589.33,91.86 591.46,91.24 593.59,90.84 595.72,92.48 597.85,92.15 599.98,94.19 602.11,94.64 604.24,95.56 606.37,93.58 608.50,94.31 610.63,93.70 612.76,93.50 614.89,93.24 617.02,93.54 619.15,93.03 621.28,91.50 623.41,92.08 625.54,92.04 627.67,91.65 629.80,92.42 631.93,93.71 634.06,93.83 636.19,92.57 638.32,94.06 640.45,94.01 642.58,92.68 644.71,92.12 646.84,92.46 648.97,92.01 651.10,92.30 653.23,93.54 655.36,94.52 657.49,94.28 659.62,92.87 661.75,93.28 663.88,93.76 666.01,93.90 668.14,94.57 670.27,93.76 672.40,94.15 674.53,93.10 676.66,94.70 678.79,93.39 680.92,93.43 683.05,94.48 685.18,92.89 687.31,92.82 689.44,94.34 691.57,94.06 693.70,92.95 695.83,92.94 697.96,91.95 700.09,91.45 702.22,91.27 704.35,91.48 706.48,90.82 708.61,91.04 710.74,91.37 712.87,93.61 715.00,92.44 717.13,91.48 719.26,92.26 721.39,92.84 723.52,91.24 725.65,93.34 727.78,92.71 729.91,90.80 732.04,92.47 734.17,92.11 736.30,90.96 738.43,91.98 740.56,92.01 742.69,91.77 744.82,93.10 746.95,93.18 749.08,92.90 751.21,92.32 753.34,92.70 755.47,93.03 757.60,93.87 759.73,93.78 761.86,92.71 763.99,92.75 766.12,93.53 768.25,93.94 770.38,91.34 772.51,91.16 774.64,91.49 776.77,94.29 778.90,93.22 781.03,92.74 783.16,91.51 785.29,91.87 787.42,92.48 789.55,92.35 791.68,94.26 793.81,92.90 795.94,92.71 798.07,93.43 800.20,92.19 802.33,91.13 804.46,93.16 806.59,93.67 808.72,93.17 810.85,92.97 812.98,93.32 815.11,93.96 817.24,91.81 819.37,91.52 821.50,93.17 823.63,94.19 825.76,92.28 827.89,91.81 830.02,90.92 832.15,91.27 834.28,92.84 836.41,92.80 838.54,94.71 840.67,94.58 842.80,93.93 844.93,93.07 847.06,93.60 849.19,93.38 851.32,92.79 853.45,92.53 855.58,92.18 857.71,92.35 859.84,92.87 861.97,92.27 864.10,92.55 866.23,93.40 868.36,93.70 870.49,93.34 872.62,93.22 874.75,92.93 876.88,92.89 879.01,92.73 881.14,92.89 883.27,93.87 885.40,93.05 887.53,92.09 889.66,92.07 891.79,92.57 893.92,92.35 896.05,93.36 898.18,94.65 900.31,93.75 902.44,94.03 904.57,92.82 906.70,93.61 908.83,95.26 910.96,94.85 913.09,92.49 915.22,92.76 917.35,93.70 919.48,93.72 921.61,92.68 923.74,92.14 925.87,92.11 928.00,91.06" fill="none" stroke="#94a3b8" stroke-width="2" opacity="0.75"/>
  <polyline points="76.00,445.21 78.13,415.51 80.26,386.88 82.39,362.25 84.52,340.94 86.65,322.94 88.78,307.74 90.91,293.16 93.04,280.21 95.17,267.56 97.30,256.03 99.43,245.20 101.56,233.87 103.69,225.55 105.82,217.26 107.95,209.44 110.08,200.54 112.21,192.64 114.34,186.16 116.47,180.39 118.60,175.44 120.73,170.35 122.86,165.94 124.99,160.85 127.12,156.94 129.25,153.23 131.38,148.94 133.51,146.80 135.64,143.57 137.77,141.03 139.90,137.22 142.03,133.91 144.16,131.30 146.29,129.07 148.42,127.49 150.55,125.55 152.68,123.23 154.81,120.84 156.94,119.10 159.07,118.73 161.20,116.57 163.33,115.53 165.46,114.59 167.59,112.24 169.72,111.51 171.85,111.59 173.98,108.95 176.11,108.21 178.24,107.60 180.37,106.44 182.50,106.39 184.63,105.72 186.76,104.09 188.89,104.49 191.02,104.42 193.15,104.39 195.28,104.57 197.41,103.77 199.54,102.96 201.67,101.33 203.80,101.54 205.93,100.66 208.06,100.11 210.19,99.06 212.32,98.51 214.45,98.35 216.58,99.43 218.71,97.64 220.84,96.85 222.97,97.46 225.10,98.60 227.23,98.63 229.36,96.82 231.49,95.20 233.62,96.16 235.75,95.89 237.88,95.39 240.01,96.50 242.14,97.22 244.27,96.95 246.40,96.82 248.53,96.85 250.66,97.65 252.79,97.44 254.92,97.22 257.05,97.09 259.18,95.49 261.31,96.48 263.44,96.84 265.57,96.74 267.70,94.88 269.83,94.65 271.96,95.51 274.09,94.13 276.22,94.39 278.35,95.37 280.48,94.29 282.61,95.67 284.74,95.75 286.87,95.30 289.00,95.34 291.13,95.58 293.26,95.35 295.39,95.92 297.52,94.98 299.65,94.57 301.78,95.32 303.91,95.06 306.04,94.24 308.17,95.01 310.30,95.84 312.43,94.99 314.56,93.80 316.69,93.93 318.82,93.97 320.95,93.87 323.08,94.99 325.21,93.95 327.34,94.92 329.47,93.72 331.60,93.30 333.73,94.03 335.86,94.82 337.99,95.11 340.12,94.93 342.25,94.67 344.38,94.52 346.51,94.72 348.64,94.31 350.77,94.38 352.90,94.62 355.03,94.35 357.16,94.73 359.29,94.82 361.42,95.90 363.55,95.38 365.68,94.53 367.81,94.05 369.94,93.99 372.07,94.61 374.20,94.09 376.33,94.27 378.46,95.41 380.59,92.99 382.72,92.50 384.85,93.14 386.98,93.62 389.11,93.79 391.24,93.42 393.37,93.94 395.50,94.00 397.63,93.46 399.76,95.21 401.89,94.83 404.02,93.96 406.15,93.75 408.28,93.52 410.41,93.49 412.54,91.56 414.67,91.94 416.80,93.20 418.93,92.42 421.06,92.70 423.19,93.59 425.32,94.06 427.45,94.81 429.58,93.03 431.71,92.88 433.84,92.79 435.97,93.41 438.10,94.11 440.23,91.88 442.36,93.16 444.49,92.14 446.62,93.01 448.75,91.99 450.88,92.54 453.01,93.58 455.14,93.28 457.27,93.33 459.40,93.80 461.53,93.63 463.66,93.37 465.79,94.37 467.92,94.64 470.05,93.88 472.18,95.58 474.31,93.88 476.44,94.31 478.57,93.74 480.70,93.67 482.83,94.04 484.96,93.92 487.09,94.14 489.22,92.74 491.35,91.88 493.48,92.83 495.61,92.28 497.74,91.88 499.87,91.30 502.00,92.85 504.13,93.43 506.26,94.31 508.39,93.15 510.52,93.11 512.65,92.27 514.78,93.10 516.91,94.19 519.04,93.11 521.17,94.19 523.30,94.46 525.43,93.81 527.56,92.15 529.69,93.51 531.82,93.28 533.95,92.78 536.08,93.17 538.21,93.42 540.34,94.34 542.47,93.14 544.60,93.92 546.73,94.67 548.86,95.11 550.99,94.25 553.12,93.33 555.25,94.01 557.38,93.79 559.51,93.66 561.64,94.51 563.77,93.83 565.90,91.98 568.03,92.17 570.16,91.22 572.29,92.51 574.42,92.92 576.55,92.51 578.68,92.68 580.81,93.37 582.94,93.27 585.07,94.09 587.20,93.63 589.33,94.13 591.46,94.77 593.59,95.27 595.72,93.98 597.85,94.30 599.98,92.55 602.11,92.02 604.24,91.05 606.37,92.57 608.50,91.85 610.63,92.26 612.76,92.37 614.89,92.54 617.02,92.24 619.15,92.64 621.28,93.98 623.41,93.58 625.54,93.70 627.67,94.11 629.80,93.53 631.93,92.42 634.06,92.24 636.19,93.26 638.32,91.96 640.45,91.90 642.58,92.98 644.71,93.49 646.84,93.26 648.97,93.68 651.10,93.50 653.23,92.45 655.36,91.51 657.49,91.58 659.62,92.71 661.75,92.34 663.88,91.87 666.01,91.66 668.14,90.98 670.27,91.54 672.40,91.12 674.53,91.94 676.66,90.50 678.79,91.51 680.92,91.43 683.05,90.45 685.18,91.72 687.31,91.79 689.44,90.44 691.57,90.56 693.70,91.44 695.83,91.45 697.96,92.33 700.09,92.86 702.22,93.15 704.35,93.11 706.48,93.82 708.61,93.80 710.74,93.67 712.87,91.80 715.00,92.77 717.13,93.66 719.26,93.08 721.39,92.61 723.52,94.04 725.65,92.30 727.78,92.82 729.91,94.52 732.04,93.21 734.17,93.56 736.30,94.64 738.43,93.89 740.56,93.93 742.69,94.21 744.82,93.11 746.95,93.01 749.08,93.22 751.21,93.72 753.34,93.42 755.47,93.12 757.60,92.36 759.73,92.34 761.86,93.20 763.99,93.17 766.12,92.47 768.25,92.04 770.38,94.25 772.51,94.54 774.64,94.38 776.77,92.01 778.90,92.82 781.03,93.21 783.16,94.30 785.29,94.10 787.42,93.63 789.55,93.77 791.68,92.11 793.81,93.19 795.94,93.34 798.07,92.71 800.20,93.75 802.33,94.74 804.46,93.09 806.59,92.59 808.72,92.96 810.85,93.10 812.98,92.77 815.11,92.15 817.24,93.95 819.37,94.30 821.50,92.95 823.63,92.00 825.76,93.57 827.89,94.03 830.02,94.92 832.15,94.77 834.28,93.50 836.41,93.53 838.54,91.83 840.67,91.76 842.80,92.19 844.93,92.84 847.06,92.35 849.19,92.47 851.32,92.95 853.45,93.18 855.58,93.51 857.71,93.42 859.84,92.99 861.97,93.52 864.10,93.32 866.23,92.58 868.36,92.27 870.49,92.50 872.62,92.56 874.75,92.78 876.88,92.80 879.01,92.94 881.14,92.81 883.27,91.92 885.40,92.56 887.53,93.40 889.66,93.48 891.79,93.10 893.92,93.32 896.05,92.45 898.18,91.26 900.31,91.89 902.44,91.56 904.57,92.53 906.70,91.82 908.83,90.29 910.96,90.44 913.09,92.36 915.22,92.15 917.35,91.33 919.48,91.24 921.61,92.08 923.74,92.59 925.87,92.68 928.00,93.67" fill="none" stroke="#2563eb" stroke-width="3"/>
  <polyline points="76.00,44.00 78.13,44.00 80.26,44.00 82.39,85.79 84.52,120.11 86.65,155.84 88.78,186.04 90.91,187.21 93.04,202.68 95.17,200.44 97.30,209.86 99.43,213.85 101.56,201.44 103.69,237.95 105.82,234.22 107.95,236.60 110.08,217.57 112.21,227.27 114.34,243.09 116.47,249.77 118.60,258.53 120.73,253.98 122.86,261.06 124.99,249.21 127.12,263.18 129.25,264.16 131.38,254.08 133.51,282.17 135.64,265.75 137.77,273.70 139.90,254.83 142.03,259.74 144.16,268.06 146.29,272.04 148.42,279.91 150.55,274.24 152.68,267.83 154.81,265.68 156.94,273.72 159.07,292.01 161.20,266.73 163.33,281.29 165.46,282.14 167.59,262.06 169.72,283.41 171.85,294.47 173.98,256.45 176.11,281.71 178.24,283.21 180.37,275.15 182.50,290.17 184.63,281.41 186.76,267.55 188.89,295.25 191.02,288.90 193.15,289.47 195.28,292.26 197.41,278.66 199.54,278.24 201.67,266.14 203.80,291.21 205.93,276.10 208.06,280.17 210.19,273.04 212.32,279.32 214.45,284.66 216.58,301.94 218.71,262.29 220.84,275.33 222.97,294.62 225.10,302.35 227.23,287.22 229.36,261.64 231.49,263.29 233.62,298.59 235.75,281.96 237.88,278.47 240.01,300.87 242.14,295.96 244.27,282.55 246.40,284.26 248.53,286.33 250.66,297.36 252.79,283.45 254.92,283.27 257.05,284.37 259.18,263.66 261.31,299.37 263.44,290.83 265.57,284.60 267.70,259.92 269.83,281.82 271.96,297.04 274.09,265.95 276.22,288.35 278.35,298.50 280.48,270.18 282.61,304.12 284.74,286.61 286.87,279.09 289.00,285.86 291.13,288.69 293.26,282.09 295.39,293.30 297.52,272.43 299.65,279.28 301.78,295.52 303.91,281.54 306.04,273.64 308.17,295.54 310.30,296.75 312.43,273.66 314.56,268.38 316.69,286.27 318.82,285.17 320.95,283.17 323.08,300.34 325.21,270.51 327.34,298.19 329.47,268.17 331.60,278.64 333.73,294.46 335.86,295.65 337.99,289.10 340.12,282.62 342.25,281.52 344.38,282.83 346.51,287.72 348.64,279.20 350.77,285.63 352.90,288.17 355.03,281.25 357.16,290.05 359.29,286.21 361.42,300.18 363.55,278.28 365.68,273.45 367.81,278.07 369.94,283.85 372.07,293.26 374.20,277.61 376.33,287.22 378.46,300.67 380.59,251.36 382.72,277.28 384.85,292.84 386.98,290.94 389.11,286.81 391.24,279.20 393.37,291.72 395.50,285.35 397.63,277.04 399.76,308.97 401.89,279.87 404.02,272.83 406.15,281.60 408.28,281.28 410.41,283.88 412.54,257.35 414.67,288.64 416.80,301.26 418.93,273.24 421.06,287.82 423.19,296.40 425.32,291.07 427.45,295.18 429.58,259.94 431.71,282.08 433.84,282.76 435.97,292.65 438.10,294.25 440.23,253.28 442.36,301.55 444.49,269.88 446.62,295.88 448.75,269.85 450.88,291.22 453.01,298.56 455.14,280.11 457.27,285.05 459.40,290.84 461.53,282.13 463.66,280.77 465.79,298.23 467.92,288.72 470.05,274.23 472.18,308.35 474.31,261.62 476.44,290.56 478.57,276.78 480.70,283.53 482.83,289.52 484.96,282.96 487.09,287.70 489.22,265.07 491.35,271.90 493.48,296.90 495.61,276.30 497.74,278.11 499.87,275.34 502.00,305.07 504.13,292.15 506.26,296.62 508.39,268.54 510.52,283.60 512.65,272.41 514.78,295.34 516.91,299.45 519.04,269.59 521.17,299.31 523.30,288.48 525.43,275.79 527.56,261.18 529.69,302.77 531.82,281.10 533.95,277.18 536.08,289.53 538.21,287.65 540.34,297.30 542.47,267.86 544.60,295.25 546.73,294.96 548.86,291.21 550.99,273.07 553.12,271.83 555.25,293.84 557.38,281.52 559.51,282.70 561.64,296.26 563.77,275.44 565.90,258.50 568.03,286.29 570.16,270.39 572.29,301.21 574.42,289.70 576.55,278.33 578.68,286.21 580.81,293.68 582.94,282.81 585.07,295.80 587.20,278.12 589.33,291.49 591.46,293.68 593.59,292.00 595.72,267.19 597.85,289.08 599.98,260.17 602.11,276.46 604.24,269.96 606.37,304.44 608.50,273.85 610.63,289.25 612.76,285.28 614.89,286.24 617.02,279.69 619.15,289.26 621.28,302.79 623.41,279.00 625.54,285.98 627.67,290.26 629.80,276.50 631.93,268.88 634.06,281.19 636.19,298.15 638.32,266.01 640.45,282.64 642.58,298.74 644.71,291.28 646.84,281.06 648.97,290.24 651.10,281.92 653.23,269.51 655.36,270.77 657.49,284.26 659.62,299.22 661.75,278.80 663.88,277.18 666.01,280.63 668.14,273.87 670.27,291.00 672.40,277.45 674.53,294.67 676.66,263.43 678.79,296.95 680.92,282.22 683.05,269.56 685.18,300.67 687.31,284.41 689.44,264.62 691.57,284.49 693.70,295.29 695.83,283.44 697.96,295.73 700.09,291.22 702.22,288.07 704.35,283.58 706.48,294.10 708.61,284.28 710.74,282.64 712.87,258.32 715.00,297.07 717.13,296.47 719.26,276.33 721.39,277.57 723.52,303.89 725.65,260.31 727.78,290.96 729.91,307.91 732.04,266.49 734.17,289.14 736.30,299.46 738.43,274.51 740.56,285.13 742.69,288.47 744.82,269.27 746.95,282.78 749.08,286.99 751.21,291.25 753.34,280.29 755.47,280.17 757.60,273.40 759.73,283.52 761.86,295.87 763.99,283.75 766.12,274.40 768.25,277.82 770.38,314.67 772.51,288.79 774.64,282.68 776.77,251.52 778.90,294.98 781.03,289.48 783.16,299.55 785.29,281.87 787.42,278.13 789.55,286.36 791.68,261.18 793.81,298.77 795.94,286.36 798.07,275.38 800.20,298.59 802.33,298.36 804.46,261.79 806.59,277.22 808.72,289.03 810.85,286.07 812.98,279.53 815.11,275.32 817.24,308.98 819.37,289.45 821.50,265.75 823.63,270.87 825.76,305.62 827.89,290.84 830.02,297.05 832.15,282.96 834.28,267.24 836.41,284.77 838.54,260.50 840.67,282.60 842.80,289.43 844.93,292.91 847.06,277.15 849.19,285.42 851.32,290.54 853.45,287.36 855.58,288.86 857.71,283.06 859.84,278.30 861.97,291.50 864.10,281.62 866.23,273.91 868.36,279.44 870.49,287.06 872.62,284.70 874.75,286.97 876.88,284.29 879.01,285.93 881.14,282.17 883.27,271.63 885.40,292.52 887.53,295.61 889.66,285.45 891.79,278.98 893.92,287.25 896.05,272.18 898.18,267.06 900.31,292.10 902.44,278.92 904.57,296.96 906.70,274.00 908.83,261.94 910.96,284.90 913.09,309.82 915.22,280.85 917.35,272.06 919.48,282.03 921.61,295.09 923.74,290.70 925.87,285.17 928.00,297.89" fill="none" stroke="#16a34a" stroke-width="2.5" opacity="0.85"/>
  <g font-size="14" fill="#172033">
    <rect x="715" y="34" width="188" height="86" rx="6" fill="#ffffff" stroke="#d7dde5"/>
    <line x1="735" y1="58" x2="775" y2="58" stroke="#2563eb" stroke-width="3"/>
    <text x="785" y="63">simulated RPM</text>
    <line x1="735" y1="84" x2="775" y2="84" stroke="#94a3b8" stroke-width="2"/>
    <text x="785" y="89">measured RPM</text>
    <line x1="735" y1="110" x2="775" y2="110" stroke="#16a34a" stroke-width="2.5"/>
    <text x="785" y="115">PWM command</text>
  </g>
</svg>
